<?xml version="1.0" encoding="UTF-8" standalone="no"?>
<!DOCTYPE svg PUBLIC "-//W3C//DTD SVG 1.1//EN" "http://www.w3.org/Graphics/SVG/1.1/DTD/svg11.dtd">
<svg width="100%" height="100%" viewBox="0 0 64 64" version="1.1" xmlns="http://www.w3.org/2000/svg" xmlns:xlink="http://www.w3.org/1999/xlink" xml:space="preserve" xmlns:serif="http://www.serif.com/" style="fill-rule:evenodd;clip-rule:evenodd;stroke-linecap:round;stroke-linejoin:round;stroke-miterlimit:1.5;">
    <g id="b">
        <path d="M30.567,14.968C46.868,13.895 60.723,21.603 61.515,32.193C62.308,42.783 49.731,52.229 33.432,53.301C17.132,54.372 3.276,46.663 2.485,36.077C1.694,25.491 14.266,16.043 30.567,14.968Z" style="fill:rgb(79,129,152);fill-rule:nonzero;"/>
        <path d="M30.567,10.699C46.868,9.626 60.723,17.334 61.515,27.924C62.308,38.515 49.731,47.96 33.432,49.032C17.132,50.104 3.276,42.394 2.485,31.808C1.694,21.223 14.266,11.774 30.567,10.699Z" style="fill:rgb(115,167,199);fill-rule:nonzero;"/>
        <path d="M30.811,14.848C44.611,13.939 56.284,19.876 56.9,28.112C57.516,36.348 46.833,43.755 33.04,44.663C19.248,45.572 7.567,39.632 6.951,31.399C6.336,23.166 17.018,15.756 30.811,14.848Z" style="fill:rgb(39,65,0);fill-rule:nonzero;"/>
        <path d="M30.706,12.624C45.679,11.594 58.344,18.321 59.012,27.655C59.681,36.988 48.09,45.382 33.124,46.411C18.16,47.441 5.487,40.709 4.818,31.38C4.151,22.05 15.741,13.653 30.706,12.624Z" style="fill:rgb(39,65,0);fill-rule:nonzero;"/>
        <path d="M30.567,10.699C46.868,9.626 60.723,17.334 61.515,27.924C62.308,38.515 49.731,47.96 33.432,49.032C17.132,50.104 3.276,42.394 2.485,31.808C1.694,21.223 14.266,11.774 30.567,10.699ZM30.731,13.194C21.645,13.793 13.776,17.118 9.118,21.865C6.319,24.718 4.713,28.077 4.978,31.622C5.244,35.179 7.342,38.304 10.55,40.771C15.875,44.867 24.172,47.136 33.268,46.537C42.353,45.94 50.223,42.617 54.882,37.87C57.682,35.017 59.288,31.657 59.022,28.111C58.756,24.551 56.657,21.426 53.45,18.959C48.124,14.862 39.828,12.595 30.731,13.194Z" style="fill:rgb(115,167,199);"/>
    </g>
    <g id="Layer1">
        <path d="M26.32,16.435L48.444,19.057L34.448,43.88L11.043,38.087L26.32,16.435Z" style="fill:rgb(170,120,80);"/>
        <path d="M15.465,3.094C15.465,3.094 12.633,8.422 12.633,10.703C12.633,12.266 13.902,13.535 15.465,13.535C17.027,13.535 18.297,12.266 18.297,10.703C18.297,8.422 15.465,3.094 15.465,3.094Z" style="fill:rgb(75,195,241);"/>
        <path d="M26.32,0.094C26.32,0.094 23.488,5.422 23.488,7.703C23.488,9.266 24.758,10.535 26.32,10.535C27.883,10.535 29.152,9.266 29.152,7.703C29.152,5.422 26.32,0.094 26.32,0.094Z" style="fill:rgb(75,195,241);"/>
        <path d="M37.68,0.094C37.68,0.094 34.848,5.422 34.848,7.703C34.848,9.266 36.117,10.535 37.68,10.535C39.242,10.535 40.512,9.266 40.512,7.703C40.512,5.422 37.68,0.094 37.68,0.094Z" style="fill:rgb(75,195,241);"/>
        <path d="M48.535,2.094C48.535,2.094 45.703,7.422 45.703,9.703C45.703,11.266 46.973,12.535 48.535,12.535C50.098,12.535 51.367,11.266 51.367,9.703C51.367,7.422 48.535,2.094 48.535,2.094Z" style="fill:rgb(75,195,241);"/>
        <path d="M12.016,36.706L34.848,42.163L33.948,43.756L11.043,38.087L12.016,36.706Z" style="fill:rgb(146,144,144);stroke:rgb(146,144,144);stroke-width:1px;"/>
        <path d="M26.32,16.435L48.444,19.057L34.448,43.88L11.043,38.087L26.32,16.435Z" style="fill:none;stroke:rgb(146,144,144);stroke-width:0.87px;"/>
    </g>
</svg>
