<?xml version="1.0" encoding="UTF-8" standalone="no"?>
<!DOCTYPE svg PUBLIC "-//W3C//DTD SVG 1.1//EN" "http://www.w3.org/Graphics/SVG/1.1/DTD/svg11.dtd">
<svg width="100%" height="100%" viewBox="0 0 64 64" version="1.1" xmlns="http://www.w3.org/2000/svg" xmlns:xlink="http://www.w3.org/1999/xlink" xml:space="preserve" xmlns:serif="http://www.serif.com/" style="fill-rule:evenodd;clip-rule:evenodd;stroke-linejoin:round;stroke-miterlimit:2;">
    <g id="b">
        <path d="M30.567,14.968C46.868,13.895 60.723,21.603 61.515,32.193C62.308,42.783 49.731,52.229 33.432,53.301C17.132,54.372 3.276,46.663 2.485,36.077C1.694,25.491 14.266,16.043 30.567,14.968Z" style="fill:rgb(79,129,152);fill-rule:nonzero;"/>
        <path d="M30.811,14.848C44.611,13.939 56.284,19.876 56.9,28.112C57.516,36.348 46.833,43.755 33.04,44.663C19.248,45.572 7.567,39.632 6.951,31.399C6.336,23.166 17.018,15.756 30.811,14.848Z" style="fill:rgb(39,65,0);fill-rule:nonzero;"/>
        <path d="M30.706,12.624C45.679,11.594 58.344,18.321 59.012,27.655C59.681,36.988 48.09,45.382 33.124,46.411C18.16,47.441 5.487,40.709 4.818,31.38C4.151,22.05 15.741,13.653 30.706,12.624Z" style="fill:rgb(39,65,0);fill-rule:nonzero;"/>
    </g>
    <g id="a">
        <g>
            <path d="M43.845,15.473C43.926,15.386 44.068,15.377 44.165,15.449C44.259,15.519 44.272,15.646 44.191,15.733C43.722,16.23 43.249,16.727 42.764,17.219C42.441,17.542 42.11,17.865 41.772,18.184C40.955,18.948 39.732,21.205 38.971,22.021C38.445,22.581 37.973,23.157 37.611,23.751C37.404,24.088 37.263,24.409 37.152,24.726C36.861,25.567 36.798,26.361 36.475,27.221C36.262,27.781 35.951,28.344 35.557,28.897C35.2,29.399 34.775,29.893 34.295,30.369C33.817,30.854 33.29,31.274 32.726,31.649C31.435,32.511 29.981,33.158 28.708,34.062C27.06,35.246 25.609,36.697 24.003,37.946C23.437,38.384 22.867,38.822 22.232,39.174C22.072,39.263 21.907,39.343 21.739,39.42C21.427,39.563 21.115,39.687 20.805,39.804C20.073,40.081 19.346,40.31 18.619,40.568C17.835,40.852 17.029,41.159 16.231,41.515C15.465,41.857 14.707,42.239 13.98,42.682C13.877,42.743 13.738,42.72 13.67,42.63C13.599,42.539 13.059,42.599 13.162,42.536C13.899,42.076 15.237,41.492 16.013,41.133C16.816,40.763 17.63,40.437 18.422,40.137C19.036,39.907 19.658,39.708 20.272,39.462C20.661,39.305 21.041,39.125 21.422,38.918C21.573,38.836 21.723,38.747 21.873,38.66C22.479,38.318 23.075,37.962 23.631,37.552C25.276,36.34 26.717,34.866 28.377,33.69C29.653,32.78 31.093,32.105 32.402,31.259C32.946,30.908 33.471,30.533 33.943,30.083C34.41,29.629 34.825,29.157 35.169,28.677C35.546,28.154 35.842,27.62 36.042,27.092C36.368,26.235 36.428,25.445 36.719,24.606C36.837,24.266 36.992,23.919 37.213,23.556C37.588,22.942 38.079,22.344 38.621,21.761C39.391,20.94 40.622,18.676 41.446,17.906C41.782,17.591 42.105,17.273 42.425,16.952C42.908,16.461 43.378,15.967 43.845,15.473Z" style="fill:rgb(75,195,241);stroke:rgb(75,195,241);stroke-width:4.5px;"/>
            <path d="M44.543,14.634C44.613,14.555 44.734,14.544 44.815,14.609C44.9,14.674 44.91,14.789 44.843,14.868C44.468,15.308 44.108,15.752 43.757,16.202C42.932,17.263 42.149,19.652 41.307,20.702C40.616,21.567 39.831,22.489 39.201,23.427C38.759,24.085 38.394,24.75 38.2,25.407C37.744,26.951 36.757,28.105 36.673,29.485C36.641,30.033 36.487,30.614 36.106,31.266C35.653,32.036 35.067,32.707 34.408,33.323C32.94,34.692 31.105,35.794 29.618,37.177C29.218,37.545 28.908,37.938 28.635,38.342C27.944,39.368 27.504,40.459 26.638,41.44C26.193,41.945 25.682,42.417 25.142,42.867C23.931,43.879 22.557,44.796 21.407,45.816C21.321,45.895 21.183,45.889 21.102,45.805C21.021,45.723 21.026,45.592 21.113,45.516C22.26,44.482 23.623,43.546 24.832,42.529C25.353,42.09 25.847,41.634 26.279,41.148C27.132,40.183 27.561,39.106 28.241,38.096C28.53,37.665 28.865,37.248 29.291,36.853C30.781,35.475 32.619,34.376 34.087,33.006C34.717,32.42 35.278,31.784 35.709,31.051C36.052,30.47 36.192,29.949 36.225,29.458C36.317,28.051 37.312,26.869 37.785,25.295C37.992,24.6 38.376,23.899 38.845,23.206C39.485,22.26 40.284,21.332 40.983,20.465C41.83,19.417 42.613,17.034 43.444,15.976C43.801,15.523 44.162,15.076 44.543,14.634Z" style="fill:rgb(75,195,241);stroke:rgb(75,195,241);stroke-width:4.51px;stroke-linejoin:miter;"/>
            <path d="M16.459,44.087C22.307,44.273 29.122,36.979 33.824,30.872" style="fill:none;stroke:rgb(75,195,241);stroke-width:4.5px;stroke-linecap:round;stroke-miterlimit:1.5;"/>
        </g>
        <path d="M30.567,10.699C46.868,9.626 60.723,17.334 61.515,27.924C62.308,38.515 49.731,47.96 33.432,49.032C17.132,50.104 3.276,42.394 2.485,31.808C1.694,21.223 14.266,11.774 30.567,10.699ZM30.731,13.194C21.645,13.793 13.776,17.118 9.118,21.865C6.319,24.718 4.713,28.077 4.978,31.622C5.244,35.179 7.342,38.304 10.55,40.771C15.875,44.867 24.172,47.136 33.268,46.537C42.353,45.94 50.223,42.617 54.882,37.87C57.682,35.017 59.288,31.657 59.022,28.111C58.756,24.551 56.657,21.426 53.45,18.959C48.124,14.862 39.828,12.595 30.731,13.194Z" style="fill:rgb(115,167,199);"/>
        <g>
            <path d="M19.167,21.306C19.119,21.275 19.112,21.21 19.143,21.168C19.178,21.126 19.241,21.114 19.285,21.144C19.38,21.137 19.405,21.102 19.492,21.126C19.566,21.144 19.618,21.21 19.681,21.253C20.619,21.909 21.5,22.646 22.299,23.455C23.198,24.36 23.98,25.362 24.613,26.464C24.696,26.613 24.64,26.797 24.49,26.877C24.341,26.958 24.146,26.905 24.063,26.758C23.584,25.911 23.007,25.124 22.366,24.387C21.497,23.39 20.496,22.499 19.44,21.686C19.357,21.621 19.245,21.583 19.195,21.494C19.147,21.414 19.178,21.394 19.167,21.306Z" style="fill:rgb(85,142,47);"/>
            <path d="M27.39,13.965C27.414,13.915 27.473,13.892 27.524,13.915C27.576,13.939 27.595,13.996 27.576,14.046C26.642,15.995 25.97,18.048 25.483,20.151C24.993,22.254 24.688,24.399 24.503,26.529C24.499,26.586 24.448,26.628 24.387,26.625C24.329,26.617 24.285,26.567 24.289,26.509C24.474,24.373 24.779,22.215 25.273,20.105C25.768,17.991 26.449,15.923 27.39,13.965Z" style="fill:rgb(85,142,47);"/>
            <path d="M27.339,10.059C27.362,10.005 27.422,9.978 27.48,9.998C27.536,10.016 27.564,10.078 27.545,10.135C26.528,12.746 25.744,15.469 25.219,18.237C24.688,21.007 24.42,23.815 24.443,26.609C24.443,26.667 24.4,26.712 24.341,26.712C24.285,26.712 24.237,26.667 24.237,26.613C24.202,23.807 24.459,20.976 24.989,18.194C25.515,15.415 26.314,12.68 27.339,10.059Z" style="fill:rgb(85,142,47);"/>
            <path d="M20.417,16.721C20.385,16.675 20.401,16.609 20.452,16.578C20.5,16.548 20.567,16.563 20.598,16.613C20.698,16.748 20.797,16.882 20.887,17.023C21.702,18.275 22.335,19.645 22.905,21.033C23.407,22.265 23.834,23.532 24.19,24.797C24.23,24.936 24.257,25.07 24.301,25.2C24.324,25.258 24.356,25.313 24.376,25.369C24.42,25.493 24.439,25.627 24.47,25.754C24.49,25.826 24.443,25.895 24.372,25.915C24.298,25.933 24.221,25.888 24.206,25.818C24.175,25.688 24.127,25.565 24.102,25.436C24.091,25.377 24.095,25.317 24.083,25.258C24.059,25.12 24.012,24.99 23.976,24.856C23.621,23.597 23.194,22.342 22.687,21.118C22.113,19.744 21.41,18.429 20.662,17.154C20.579,17.011 20.5,16.862 20.417,16.721Z" style="fill:rgb(85,142,47);"/>
            <path d="M20.963,3.325C20.951,3.259 20.994,3.206 21.057,3.198C21.125,3.194 21.188,3.24 21.199,3.305C21.449,4.641 21.698,5.972 21.924,7.308C22.248,9.23 22.343,11.175 22.837,13.079C23.584,15.96 24.123,18.842 24.304,21.72C24.324,22.044 24.214,24.955 24.261,25.274C24.298,25.488 24.313,25.704 24.341,25.919C24.348,25.979 24.309,26.034 24.246,26.038C24.182,26.045 24.123,25.999 24.111,25.937C24.063,25.738 24.008,25.539 23.968,25.339C23.87,24.874 23.957,21.812 23.941,21.345C23.862,18.862 23.458,16.468 22.782,14.134C22.059,11.647 21.936,9.088 21.509,6.567C21.327,5.489 21.153,4.406 20.963,3.325Z" style="fill:rgb(85,142,47);"/>
            <path d="M21.283,4.81C22.059,4.756 22.972,6.41 23.32,8.497C23.669,10.588 23.324,12.327 22.549,12.381C21.773,12.434 20.859,10.781 20.511,8.693C20.164,6.601 20.508,4.863 21.283,4.81Z" style="fill:rgb(117,70,0);"/>
        </g>
        <g>
            <path d="M16.167,29.111C16.119,29.08 16.112,29.015 16.143,28.973C16.178,28.931 16.241,28.919 16.285,28.949C16.38,28.942 16.405,28.907 16.492,28.931C16.566,28.949 16.618,29.015 16.681,29.058C17.619,29.714 18.5,30.451 19.299,31.26C20.198,32.165 20.98,33.167 21.613,34.269C21.696,34.418 21.64,34.602 21.49,34.682C21.341,34.763 21.146,34.71 21.063,34.563C20.584,33.716 20.007,32.929 19.366,32.192C18.497,31.195 17.496,30.304 16.44,29.491C16.357,29.426 16.245,29.388 16.195,29.299C16.147,29.219 16.178,29.199 16.167,29.111Z" style="fill:rgb(85,142,47);"/>
            <path d="M24.39,21.77C24.414,21.72 24.473,21.697 24.524,21.72C24.576,21.744 24.595,21.801 24.576,21.851C23.642,23.8 22.97,25.853 22.483,27.956C21.993,30.059 21.688,32.204 21.503,34.334C21.499,34.391 21.448,34.433 21.387,34.43C21.329,34.422 21.285,34.372 21.289,34.314C21.474,32.178 21.779,30.02 22.273,27.91C22.768,25.796 23.449,23.728 24.39,21.77Z" style="fill:rgb(85,142,47);"/>
            <path d="M24.339,17.864C24.362,17.81 24.422,17.783 24.48,17.803C24.536,17.821 24.564,17.883 24.545,17.94C23.528,20.551 22.744,23.274 22.219,26.042C21.688,28.812 21.42,31.62 21.443,34.414C21.443,34.472 21.4,34.517 21.341,34.517C21.285,34.517 21.237,34.472 21.237,34.418C21.202,31.612 21.459,28.781 21.989,25.999C22.515,23.22 23.314,20.485 24.339,17.864Z" style="fill:rgb(85,142,47);"/>
            <path d="M17.417,24.526C17.385,24.48 17.401,24.414 17.452,24.383C17.5,24.353 17.567,24.368 17.598,24.418C17.698,24.553 17.797,24.687 17.887,24.828C18.702,26.08 19.335,27.45 19.905,28.838C20.407,30.07 20.834,31.337 21.19,32.602C21.23,32.741 21.257,32.875 21.301,33.005C21.324,33.063 21.356,33.118 21.376,33.174C21.42,33.298 21.439,33.432 21.47,33.559C21.49,33.631 21.443,33.7 21.372,33.72C21.298,33.738 21.221,33.693 21.206,33.623C21.175,33.493 21.127,33.37 21.102,33.241C21.091,33.182 21.095,33.122 21.083,33.063C21.059,32.925 21.012,32.795 20.976,32.661C20.621,31.402 20.194,30.147 19.687,28.923C19.113,27.549 18.41,26.234 17.662,24.959C17.579,24.816 17.5,24.667 17.417,24.526Z" style="fill:rgb(85,142,47);"/>
            <path d="M17.963,11.13C17.951,11.064 17.994,11.011 18.057,11.003C18.125,10.999 18.188,11.045 18.199,11.11C18.449,12.446 18.698,13.777 18.924,15.113C19.248,17.035 19.343,18.98 19.837,20.884C20.584,23.765 21.123,26.647 21.304,29.525C21.324,29.849 21.214,32.76 21.261,33.079C21.298,33.293 21.313,33.509 21.341,33.724C21.348,33.784 21.309,33.839 21.246,33.843C21.182,33.85 21.123,33.804 21.111,33.742C21.063,33.543 21.008,33.344 20.968,33.144C20.87,32.679 20.957,29.617 20.941,29.15C20.862,26.667 20.458,24.273 19.782,21.939C19.059,19.452 18.936,16.893 18.509,14.372C18.327,13.294 18.153,12.211 17.963,11.13Z" style="fill:rgb(85,142,47);"/>
            <path d="M18.283,12.615C19.059,12.561 19.972,14.215 20.32,16.302C20.669,18.393 20.324,20.132 19.549,20.186C18.773,20.239 17.859,18.586 17.511,16.498C17.164,14.406 17.508,12.668 18.283,12.615Z" style="fill:rgb(117,70,0);"/>
        </g>
        <g>
            <path d="M35.946,30.001C35.909,29.973 35.9,29.918 35.927,29.878C35.958,29.838 36.013,29.828 36.054,29.859C36.134,29.844 36.137,29.81 36.216,29.828C36.272,29.841 36.312,29.893 36.358,29.924C37.057,30.425 37.715,30.992 38.312,31.61C38.979,32.306 39.564,33.077 40.038,33.921C40.112,34.053 40.062,34.222 39.931,34.293C39.798,34.367 39.628,34.321 39.554,34.185C39.201,33.538 38.776,32.939 38.303,32.38C37.659,31.616 36.918,30.933 36.14,30.309C36.078,30.259 35.992,30.228 35.958,30.161C35.918,30.087 35.952,30.084 35.946,30.001Z" style="fill:rgb(85,142,47);"/>
            <path d="M41.936,24.641C41.957,24.598 42.011,24.576 42.056,24.598C42.099,24.62 42.117,24.673 42.099,24.718C41.41,26.208 40.908,27.78 40.545,29.389C40.182,30.998 39.958,32.64 39.819,34.268C39.817,34.321 39.77,34.357 39.718,34.355C39.665,34.349 39.628,34.302 39.632,34.253C39.774,32.613 39.998,30.964 40.364,29.346C40.734,27.727 41.237,26.143 41.936,24.641Z" style="fill:rgb(85,142,47);"/>
            <path d="M41.942,21.584C41.961,21.534 42.016,21.509 42.066,21.528C42.114,21.546 42.14,21.602 42.121,21.652C41.366,23.648 40.785,25.733 40.394,27.85C40.005,29.97 39.801,32.123 39.819,34.258C39.819,34.308 39.78,34.351 39.73,34.351C39.678,34.351 39.638,34.312 39.638,34.262C39.61,32.112 39.801,29.946 40.195,27.813C40.586,25.685 41.179,23.589 41.942,21.584Z" style="fill:rgb(85,142,47);"/>
            <path d="M36.801,26.697C36.773,26.65 36.789,26.595 36.832,26.567C36.875,26.54 36.934,26.552 36.962,26.598C37.035,26.7 37.109,26.802 37.18,26.908C37.786,27.866 38.253,28.921 38.674,29.986C39.051,30.93 39.364,31.896 39.628,32.869C39.659,32.973 39.678,33.077 39.715,33.178C39.73,33.222 39.755,33.259 39.774,33.302C39.804,33.401 39.819,33.501 39.844,33.6C39.859,33.666 39.819,33.73 39.755,33.745C39.69,33.76 39.626,33.721 39.61,33.656C39.586,33.561 39.552,33.465 39.533,33.364C39.527,33.317 39.533,33.274 39.524,33.228C39.506,33.123 39.472,33.022 39.444,32.92C39.182,31.955 38.863,30.998 38.484,30.062C38.063,29.01 37.53,28.007 36.98,27.029C36.918,26.918 36.863,26.807 36.801,26.697Z" style="fill:rgb(85,142,47);"/>
            <path d="M40.625,16.433C40.629,16.374 40.678,16.326 40.736,16.319C40.795,16.316 40.84,16.359 40.837,16.415C40.798,17.436 40.758,18.457 40.697,19.479C40.61,20.952 40.49,22.423 40.392,23.897C40.244,26.106 40.121,28.312 40.016,30.515C40.005,30.761 40.005,31.004 39.982,31.25C39.97,31.413 39.942,31.576 39.924,31.743C39.921,31.798 39.875,31.847 39.819,31.85C39.764,31.856 39.72,31.813 39.724,31.758C39.72,31.606 39.709,31.456 39.712,31.303C39.718,30.945 39.751,30.585 39.774,30.228C39.881,28.388 40.019,26.548 40.14,24.706C40.269,22.777 40.367,20.845 40.477,18.916C40.527,18.088 40.582,17.261 40.625,16.433Z" style="fill:rgb(85,142,47);"/>
            <path d="M40.629,17.568C41.213,17.529 41.61,18.793 41.515,20.393C41.42,21.992 40.865,23.325 40.281,23.365C39.696,23.404 39.299,22.141 39.398,20.54C39.493,18.94 40.044,17.609 40.629,17.568Z" style="fill:rgb(117,70,0);"/>
        </g>
        <g>
            <path d="M27.171,23.977C27.138,23.952 27.129,23.903 27.155,23.868C27.183,23.832 27.233,23.824 27.27,23.851C27.343,23.838 27.345,23.808 27.418,23.824C27.469,23.835 27.505,23.881 27.547,23.909C28.184,24.353 28.784,24.855 29.327,25.403C29.936,26.02 30.469,26.704 30.9,27.452C30.968,27.568 30.923,27.719 30.802,27.781C30.682,27.847 30.527,27.806 30.46,27.686C30.137,27.112 29.751,26.581 29.319,26.085C28.733,25.409 28.058,24.803 27.349,24.25C27.292,24.206 27.214,24.179 27.183,24.119C27.146,24.054 27.177,24.051 27.171,23.977Z" style="fill:rgb(85,142,47);"/>
            <path d="M32.63,19.227C32.649,19.189 32.697,19.169 32.739,19.189C32.779,19.207 32.795,19.255 32.779,19.295C32.15,20.615 31.693,22.009 31.363,23.435C31.032,24.861 30.827,26.317 30.701,27.76C30.699,27.806 30.656,27.838 30.609,27.836C30.561,27.831 30.527,27.789 30.53,27.746C30.659,26.293 30.864,24.83 31.197,23.396C31.534,21.961 31.993,20.558 32.63,19.227Z" style="fill:rgb(85,142,47);"/>
            <path d="M32.635,16.517C32.652,16.473 32.703,16.451 32.748,16.467C32.793,16.484 32.816,16.533 32.798,16.577C32.111,18.346 31.581,20.194 31.225,22.071C30.87,23.95 30.684,25.858 30.701,27.751C30.701,27.795 30.665,27.833 30.62,27.833C30.572,27.833 30.536,27.798 30.536,27.754C30.511,25.848 30.684,23.928 31.043,22.038C31.4,20.151 31.941,18.295 32.635,16.517Z" style="fill:rgb(85,142,47);"/>
            <path d="M27.951,21.049C27.925,21.007 27.94,20.958 27.979,20.934C28.018,20.909 28.071,20.92 28.097,20.961C28.164,21.051 28.231,21.141 28.296,21.236C28.848,22.084 29.274,23.02 29.658,23.963C30.001,24.801 30.286,25.657 30.527,26.519C30.555,26.612 30.572,26.704 30.606,26.794C30.62,26.832 30.642,26.865 30.659,26.904C30.687,26.991 30.701,27.08 30.724,27.168C30.738,27.225 30.701,27.283 30.642,27.296C30.583,27.31 30.525,27.274 30.511,27.217C30.488,27.132 30.458,27.048 30.441,26.958C30.435,26.916 30.441,26.878 30.432,26.838C30.415,26.745 30.385,26.655 30.359,26.565C30.121,25.709 29.83,24.861 29.484,24.031C29.1,23.099 28.615,22.21 28.113,21.343C28.058,21.245 28.007,21.146 27.951,21.049Z" style="fill:rgb(85,142,47);"/>
            <path d="M31.436,11.952C31.439,11.899 31.483,11.856 31.536,11.85C31.59,11.848 31.631,11.886 31.629,11.935C31.593,12.84 31.557,13.746 31.501,14.651C31.422,15.958 31.312,17.261 31.223,18.567C31.088,20.525 30.976,22.48 30.881,24.433C30.87,24.65 30.87,24.866 30.849,25.084C30.839,25.229 30.813,25.374 30.796,25.521C30.793,25.569 30.752,25.613 30.701,25.616C30.65,25.621 30.611,25.583 30.614,25.534C30.611,25.401 30.6,25.267 30.603,25.131C30.609,24.814 30.639,24.495 30.659,24.179C30.757,22.548 30.883,20.917 30.993,19.284C31.111,17.574 31.201,15.862 31.301,14.152C31.346,13.418 31.396,12.685 31.436,11.952Z" style="fill:rgb(85,142,47);"/>
            <path d="M31.439,12.957C31.971,12.922 32.333,14.043 32.246,15.461C32.159,16.879 31.654,18.06 31.122,18.095C30.589,18.131 30.227,17.01 30.316,15.591C30.404,14.174 30.906,12.993 31.439,12.957Z" style="fill:rgb(117,70,0);"/>
        </g>
        <g>
            <path d="M29.728,20.453C29.695,20.428 29.686,20.379 29.711,20.344C29.739,20.308 29.789,20.3 29.826,20.327C29.899,20.314 29.902,20.284 29.974,20.3C30.025,20.311 30.061,20.357 30.103,20.385C30.741,20.829 31.34,21.331 31.884,21.879C32.492,22.496 33.025,23.18 33.457,23.928C33.524,24.044 33.479,24.195 33.358,24.257C33.238,24.323 33.084,24.282 33.016,24.162C32.694,23.588 32.307,23.057 31.876,22.561C31.289,21.885 30.614,21.279 29.905,20.726C29.848,20.682 29.77,20.654 29.739,20.594C29.703,20.53 29.733,20.526 29.728,20.453Z" style="fill:rgb(85,142,47);"/>
            <path d="M35.186,15.703C35.206,15.665 35.254,15.645 35.296,15.665C35.335,15.683 35.352,15.731 35.335,15.771C34.707,17.091 34.25,18.484 33.919,19.911C33.588,21.337 33.384,22.793 33.257,24.235C33.255,24.282 33.213,24.314 33.166,24.312C33.117,24.307 33.084,24.265 33.087,24.222C33.216,22.769 33.421,21.306 33.754,19.872C34.091,18.437 34.55,17.034 35.186,15.703Z" style="fill:rgb(85,142,47);"/>
            <path d="M35.192,12.993C35.209,12.949 35.259,12.927 35.305,12.943C35.349,12.96 35.372,13.009 35.355,13.053C34.667,14.822 34.138,16.67 33.782,18.547C33.426,20.426 33.241,22.334 33.257,24.227C33.257,24.271 33.222,24.309 33.176,24.309C33.129,24.309 33.093,24.274 33.093,24.23C33.067,22.324 33.241,20.404 33.6,18.514C33.956,16.627 34.497,14.771 35.192,12.993Z" style="fill:rgb(85,142,47);"/>
            <path d="M30.507,17.525C30.482,17.483 30.496,17.434 30.535,17.41C30.575,17.385 30.628,17.396 30.654,17.437C30.72,17.527 30.788,17.617 30.853,17.712C31.404,18.56 31.83,19.495 32.214,20.439C32.557,21.277 32.843,22.133 33.084,22.995C33.112,23.088 33.129,23.18 33.163,23.27C33.176,23.308 33.199,23.341 33.216,23.38C33.244,23.467 33.257,23.556 33.28,23.644C33.294,23.701 33.257,23.759 33.199,23.772C33.139,23.786 33.081,23.75 33.067,23.693C33.045,23.608 33.014,23.524 32.997,23.434C32.991,23.392 32.997,23.354 32.988,23.314C32.972,23.221 32.941,23.131 32.916,23.04C32.677,22.185 32.386,21.337 32.041,20.507C31.657,19.575 31.172,18.686 30.67,17.819C30.614,17.721 30.564,17.622 30.507,17.525Z" style="fill:rgb(85,142,47);"/>
            <path d="M33.992,8.428C33.996,8.375 34.04,8.332 34.093,8.326C34.147,8.324 34.188,8.362 34.186,8.411C34.149,9.316 34.113,10.222 34.057,11.127C33.978,12.433 33.869,13.736 33.779,15.043C33.644,17.001 33.533,18.956 33.437,20.909C33.426,21.126 33.426,21.342 33.406,21.56C33.395,21.705 33.37,21.849 33.352,21.997C33.35,22.045 33.308,22.089 33.257,22.092C33.207,22.097 33.167,22.059 33.171,22.01C33.167,21.877 33.157,21.743 33.16,21.607C33.166,21.29 33.195,20.971 33.216,20.654C33.314,19.024 33.44,17.393 33.55,15.76C33.667,14.05 33.757,12.338 33.857,10.628C33.903,9.894 33.953,9.16 33.992,8.428Z" style="fill:rgb(85,142,47);"/>
            <path d="M33.996,9.433C34.528,9.398 34.889,10.519 34.802,11.937C34.716,13.355 34.211,14.536 33.678,14.571C33.145,14.607 32.783,13.486 32.873,12.067C32.96,10.65 33.463,9.469 33.996,9.433Z" style="fill:rgb(117,70,0);"/>
        </g>
        <g>
            <path d="M23.385,26.995C23.352,26.97 23.343,26.922 23.368,26.886C23.396,26.85 23.447,26.842 23.484,26.87C23.557,26.856 23.559,26.826 23.632,26.842C23.683,26.854 23.719,26.899 23.761,26.927C24.398,27.371 24.998,27.873 25.541,28.421C26.15,29.038 26.683,29.722 27.114,30.47C27.182,30.586 27.136,30.737 27.016,30.799C26.896,30.865 26.741,30.824 26.673,30.704C26.351,30.131 25.965,29.599 25.533,29.104C24.947,28.427 24.271,27.821 23.563,27.268C23.506,27.224 23.428,27.197 23.396,27.137C23.36,27.072 23.391,27.069 23.385,26.995Z" style="fill:rgb(85,142,47);"/>
            <path d="M28.844,22.245C28.863,22.207 28.911,22.187 28.953,22.207C28.992,22.226 29.009,22.273 28.992,22.313C28.364,23.633 27.907,25.027 27.576,26.453C27.246,27.879 27.041,29.335 26.914,30.778C26.913,30.824 26.87,30.856 26.823,30.854C26.775,30.849 26.741,30.807 26.744,30.764C26.873,29.311 27.078,27.849 27.411,26.414C27.748,24.979 28.207,23.576 28.844,22.245Z" style="fill:rgb(85,142,47);"/>
            <path d="M28.849,19.535C28.866,19.491 28.917,19.469 28.962,19.485C29.006,19.502 29.03,19.551 29.012,19.595C28.325,21.364 27.795,23.213 27.439,25.089C27.084,26.968 26.898,28.876 26.914,30.769C26.914,30.813 26.879,30.851 26.834,30.851C26.786,30.851 26.75,30.816 26.75,30.772C26.724,28.866 26.898,26.946 27.257,25.056C27.613,23.169 28.155,21.313 28.849,19.535Z" style="fill:rgb(85,142,47);"/>
            <path d="M24.165,24.067C24.139,24.025 24.154,23.976 24.192,23.952C24.232,23.928 24.285,23.938 24.311,23.98C24.377,24.069 24.445,24.16 24.51,24.254C25.062,25.103 25.488,26.038 25.872,26.981C26.215,27.819 26.5,28.675 26.741,29.537C26.769,29.63 26.786,29.722 26.82,29.812C26.834,29.851 26.856,29.883 26.873,29.922C26.901,30.009 26.914,30.098 26.937,30.186C26.951,30.243 26.914,30.301 26.856,30.314C26.797,30.328 26.738,30.292 26.724,30.235C26.702,30.151 26.672,30.066 26.655,29.976C26.649,29.935 26.655,29.896 26.646,29.856C26.629,29.763 26.599,29.673 26.573,29.583C26.335,28.727 26.044,27.879 25.698,27.049C25.314,26.117 24.829,25.228 24.327,24.361C24.271,24.263 24.221,24.164 24.165,24.067Z" style="fill:rgb(85,142,47);"/>
            <path d="M27.65,14.97C27.653,14.917 27.697,14.874 27.75,14.868C27.804,14.866 27.845,14.904 27.843,14.953C27.807,15.859 27.77,16.764 27.715,17.669C27.636,18.976 27.526,20.279 27.437,21.585C27.302,23.543 27.19,25.499 27.095,27.451C27.084,27.669 27.084,27.885 27.063,28.102C27.053,28.247 27.027,28.392 27.01,28.539C27.007,28.588 26.965,28.632 26.914,28.634C26.864,28.64 26.825,28.601 26.828,28.552C26.825,28.419 26.814,28.285 26.817,28.149C26.823,27.832 26.853,27.513 26.873,27.197C26.971,25.566 27.097,23.936 27.207,22.302C27.325,20.592 27.414,18.88 27.515,17.17C27.56,16.436 27.61,15.703 27.65,14.97Z" style="fill:rgb(85,142,47);"/>
            <path d="M27.653,15.975C28.185,15.94 28.547,17.061 28.46,18.479C28.373,19.897 27.868,21.078 27.335,21.113C26.803,21.149 26.441,20.028 26.53,18.609C26.618,17.192 27.12,16.011 27.653,15.975Z" style="fill:rgb(117,70,0);"/>
        </g>
        <g>
            <path d="M44.045,19.721C44.009,19.693 43.999,19.637 44.027,19.598C44.058,19.557 44.113,19.548 44.153,19.579C44.234,19.563 44.236,19.529 44.316,19.548C44.372,19.561 44.412,19.612 44.458,19.644C45.156,20.145 45.815,20.711 46.411,21.33C47.079,22.024 47.663,22.797 48.138,23.64C48.212,23.772 48.162,23.942 48.029,24.011C47.898,24.085 47.728,24.04 47.654,23.905C47.3,23.258 46.876,22.659 46.402,22.098C45.759,21.336 45.018,20.653 44.24,20.028C44.178,19.979 44.091,19.948 44.058,19.88C44.017,19.807 44.052,19.804 44.045,19.721Z" style="fill:rgb(85,142,47);"/>
            <path d="M50.035,14.36C50.057,14.318 50.109,14.296 50.155,14.318C50.199,14.339 50.217,14.392 50.199,14.438C49.509,15.927 49.008,17.499 48.645,19.109C48.282,20.718 48.057,22.36 47.918,23.987C47.917,24.04 47.87,24.076 47.818,24.074C47.765,24.067 47.728,24.021 47.732,23.973C47.873,22.333 48.097,20.683 48.463,19.065C48.833,17.446 49.337,15.863 50.035,14.36Z" style="fill:rgb(85,142,47);"/>
            <path d="M50.042,11.303C50.06,11.253 50.115,11.229 50.164,11.247C50.213,11.266 50.238,11.321 50.219,11.371C49.466,13.368 48.885,15.453 48.494,17.57C48.103,19.69 47.9,21.843 47.918,23.978C47.918,24.028 47.88,24.071 47.83,24.071C47.778,24.071 47.737,24.03 47.737,23.981C47.71,21.831 47.9,19.665 48.295,17.533C48.684,15.404 49.279,13.309 50.042,11.303Z" style="fill:rgb(85,142,47);"/>
            <path d="M44.901,16.416C44.873,16.37 44.889,16.315 44.931,16.287C44.975,16.26 45.032,16.272 45.061,16.318C45.134,16.419 45.208,16.521 45.28,16.628C45.885,17.585 46.353,18.64 46.774,19.705C47.149,20.65 47.464,21.616 47.728,22.587C47.759,22.693 47.778,22.797 47.815,22.898C47.83,22.941 47.854,22.978 47.873,23.022C47.904,23.12 47.918,23.221 47.944,23.319C47.959,23.385 47.918,23.449 47.854,23.465C47.789,23.48 47.725,23.44 47.71,23.375C47.686,23.281 47.651,23.185 47.632,23.083C47.626,23.037 47.632,22.994 47.623,22.948C47.605,22.843 47.571,22.742 47.544,22.64C47.282,21.674 46.963,20.718 46.584,19.782C46.162,18.73 45.63,17.727 45.079,16.749C45.018,16.638 44.963,16.527 44.901,16.416Z" style="fill:rgb(85,142,47);"/>
            <path d="M48.725,6.153C48.728,6.094 48.777,6.045 48.835,6.039C48.895,6.035 48.94,6.079 48.937,6.134C48.897,7.155 48.858,8.177 48.795,9.198C48.709,10.672 48.59,12.143 48.491,13.617C48.343,15.826 48.22,18.031 48.115,20.235C48.103,20.48 48.103,20.724 48.082,20.969C48.07,21.133 48.042,21.295 48.023,21.461C48.02,21.516 47.974,21.566 47.918,21.57C47.863,21.576 47.82,21.533 47.824,21.478C47.82,21.326 47.808,21.176 47.812,21.022C47.818,20.664 47.851,20.304 47.873,19.948C47.981,18.108 48.119,16.268 48.239,14.426C48.369,12.497 48.467,10.565 48.577,8.635C48.627,7.808 48.682,6.98 48.725,6.153Z" style="fill:rgb(85,142,47);"/>
            <path d="M48.728,7.288C49.313,7.247 49.71,8.513 49.614,10.113C49.519,11.712 48.965,13.044 48.38,13.084C47.796,13.124 47.399,11.86 47.497,10.26C47.593,8.66 48.144,7.329 48.728,7.288Z" style="fill:rgb(117,70,0);"/>
        </g>
        <g>
            <path d="M29.73,41.518C29.694,41.49 29.685,41.435 29.712,41.395C29.743,41.354 29.798,41.345 29.839,41.376C29.919,41.361 29.922,41.327 30.001,41.345C30.057,41.358 30.097,41.409 30.143,41.441C30.842,41.942 31.5,42.508 32.096,43.127C32.764,43.822 33.349,44.594 33.823,45.438C33.897,45.569 33.847,45.739 33.715,45.809C33.583,45.883 33.413,45.837 33.339,45.702C32.985,45.055 32.561,44.456 32.087,43.896C31.444,43.133 30.703,42.45 29.925,41.825C29.863,41.776 29.777,41.745 29.743,41.677C29.703,41.604 29.737,41.601 29.73,41.518Z" style="fill:rgb(85,142,47);"/>
            <path d="M35.72,36.158C35.742,36.115 35.795,36.093 35.84,36.115C35.884,36.137 35.902,36.19 35.884,36.235C35.194,37.725 34.693,39.297 34.33,40.906C33.967,42.515 33.742,44.157 33.603,45.785C33.602,45.837 33.555,45.874 33.503,45.872C33.45,45.865 33.413,45.818 33.417,45.77C33.558,44.13 33.783,42.48 34.148,40.862C34.518,39.244 35.022,37.66 35.72,36.158Z" style="fill:rgb(85,142,47);"/>
            <path d="M35.727,33.101C35.746,33.051 35.801,33.026 35.85,33.045C35.899,33.063 35.924,33.119 35.905,33.169C35.151,35.165 34.57,37.25 34.179,39.367C33.789,41.487 33.585,43.64 33.603,45.775C33.603,45.825 33.565,45.868 33.515,45.868C33.463,45.868 33.423,45.828 33.423,45.779C33.395,43.628 33.585,41.463 33.98,39.33C34.37,37.201 34.964,35.106 35.727,33.101Z" style="fill:rgb(85,142,47);"/>
            <path d="M30.586,38.214C30.558,38.167 30.574,38.112 30.616,38.084C30.66,38.057 30.718,38.069 30.746,38.115C30.819,38.217 30.893,38.319 30.965,38.425C31.57,39.382 32.038,40.437 32.459,41.502C32.835,42.447 33.149,43.413 33.413,44.385C33.444,44.49 33.463,44.594 33.5,44.695C33.515,44.738 33.539,44.775 33.558,44.819C33.589,44.918 33.603,45.018 33.629,45.116C33.644,45.182 33.603,45.246 33.539,45.262C33.474,45.277 33.41,45.237 33.395,45.172C33.371,45.078 33.337,44.982 33.318,44.881C33.312,44.834 33.318,44.791 33.308,44.745C33.29,44.64 33.257,44.539 33.229,44.437C32.967,43.471 32.648,42.515 32.269,41.579C31.847,40.527 31.315,39.524 30.764,38.546C30.703,38.435 30.648,38.324 30.586,38.214Z" style="fill:rgb(85,142,47);"/>
            <path d="M34.41,27.95C34.414,27.891 34.462,27.842 34.52,27.836C34.58,27.833 34.625,27.876 34.622,27.932C34.582,28.952 34.543,29.974 34.481,30.995C34.395,32.469 34.275,33.94 34.176,35.414C34.028,37.623 33.906,39.829 33.801,42.032C33.789,42.277 33.789,42.521 33.767,42.767C33.755,42.93 33.727,43.092 33.709,43.259C33.705,43.314 33.659,43.364 33.603,43.367C33.548,43.373 33.505,43.33 33.509,43.275C33.505,43.123 33.493,42.973 33.497,42.82C33.503,42.462 33.536,42.101 33.558,41.745C33.666,39.905 33.804,38.065 33.925,36.223C34.054,34.294 34.152,32.362 34.262,30.432C34.312,29.605 34.367,28.777 34.41,27.95Z" style="fill:rgb(85,142,47);"/>
            <path d="M34.414,29.085C34.998,29.045 35.395,30.31 35.3,31.91C35.204,33.509 34.65,34.842 34.065,34.881C33.481,34.921 33.084,33.658 33.183,32.057C33.278,30.457 33.829,29.126 34.414,29.085Z" style="fill:rgb(117,70,0);"/>
        </g>
        <g>
            <path d="M38.065,32.501C38.028,32.473 38.019,32.417 38.047,32.378C38.077,32.337 38.132,32.328 38.172,32.359C38.253,32.343 38.256,32.309 38.335,32.328C38.391,32.341 38.431,32.392 38.477,32.424C39.175,32.925 39.834,33.491 40.431,34.109C41.098,34.804 41.682,35.577 42.157,36.42C42.231,36.552 42.181,36.722 42.049,36.791C41.917,36.865 41.747,36.82 41.673,36.685C41.32,36.038 40.895,35.439 40.422,34.878C39.778,34.116 39.037,33.433 38.259,32.808C38.197,32.759 38.111,32.728 38.077,32.66C38.037,32.587 38.071,32.584 38.065,32.501Z" style="fill:rgb(85,142,47);"/>
            <path d="M44.055,27.14C44.076,27.098 44.129,27.076 44.175,27.098C44.218,27.119 44.236,27.172 44.218,27.218C43.529,28.707 43.027,30.279 42.664,31.889C42.301,33.498 42.077,35.14 41.938,36.767C41.936,36.82 41.889,36.856 41.838,36.854C41.784,36.847 41.747,36.801 41.751,36.753C41.893,35.113 42.116,33.463 42.483,31.845C42.853,30.226 43.356,28.643 44.055,27.14Z" style="fill:rgb(85,142,47);"/>
            <path d="M44.061,24.083C44.079,24.033 44.134,24.009 44.184,24.027C44.233,24.046 44.258,24.101 44.239,24.151C43.485,26.148 42.904,28.233 42.513,30.35C42.123,32.47 41.92,34.623 41.938,36.758C41.938,36.808 41.899,36.851 41.849,36.851C41.797,36.851 41.756,36.81 41.756,36.761C41.729,34.611 41.92,32.445 42.314,30.313C42.704,28.184 43.299,26.089 44.061,24.083Z" style="fill:rgb(85,142,47);"/>
            <path d="M38.92,29.196C38.892,29.15 38.908,29.095 38.951,29.067C38.994,29.04 39.052,29.051 39.081,29.098C39.154,29.199 39.228,29.301 39.299,29.408C39.905,30.365 40.372,31.42 40.793,32.485C41.169,33.43 41.483,34.396 41.747,35.367C41.778,35.473 41.797,35.577 41.834,35.678C41.849,35.721 41.874,35.758 41.893,35.802C41.923,35.9 41.938,36.001 41.963,36.099C41.978,36.165 41.938,36.229 41.874,36.245C41.809,36.26 41.745,36.22 41.729,36.155C41.705,36.061 41.671,35.965 41.652,35.863C41.645,35.817 41.652,35.774 41.643,35.728C41.625,35.623 41.59,35.522 41.563,35.42C41.302,34.454 40.982,33.498 40.603,32.562C40.182,31.51 39.649,30.507 39.099,29.529C39.037,29.418 38.982,29.307 38.92,29.196Z" style="fill:rgb(85,142,47);"/>
            <path d="M42.744,18.933C42.747,18.874 42.797,18.825 42.855,18.819C42.914,18.815 42.959,18.859 42.957,18.914C42.917,19.935 42.877,20.957 42.815,21.978C42.728,23.452 42.609,24.923 42.511,26.397C42.363,28.606 42.239,30.811 42.134,33.015C42.123,33.26 42.123,33.504 42.101,33.749C42.089,33.913 42.061,34.075 42.042,34.241C42.04,34.296 41.994,34.346 41.938,34.35C41.883,34.356 41.839,34.313 41.843,34.257C41.839,34.106 41.828,33.956 41.831,33.802C41.838,33.444 41.87,33.084 41.893,32.728C42,30.888 42.138,29.048 42.258,27.206C42.388,25.277 42.486,23.345 42.596,21.415C42.646,20.588 42.701,19.76 42.744,18.933Z" style="fill:rgb(85,142,47);"/>
            <path d="M42.747,20.068C43.332,20.027 43.729,21.293 43.633,22.893C43.539,24.492 42.985,25.824 42.4,25.864C41.815,25.904 41.418,24.64 41.516,23.04C41.612,21.44 42.163,20.109 42.747,20.068Z" style="fill:rgb(117,70,0);"/>
        </g>
    </g>
</svg>
