<?xml version="1.0" encoding="UTF-8" standalone="no"?>
<!DOCTYPE svg PUBLIC "-//W3C//DTD SVG 1.1//EN" "http://www.w3.org/Graphics/SVG/1.1/DTD/svg11.dtd">
<svg width="100%" height="100%" viewBox="0 0 64 64" version="1.1" xmlns="http://www.w3.org/2000/svg" xmlns:xlink="http://www.w3.org/1999/xlink" xml:space="preserve" xmlns:serif="http://www.serif.com/" style="fill-rule:evenodd;clip-rule:evenodd;stroke-linejoin:round;stroke-miterlimit:2;">
    <g transform="matrix(1,0,0,1,-0.336949,0)">
        <g id="Ebene-7" serif:id="Ebene 7" transform="matrix(0.0411986,0,0,0.0411986,-11.0258,-8.72585)">
            <path d="M1017.38,1671.58C978.156,1669.14 929.831,1662.3 904.908,1655.65C839.643,1638.24 793.342,1619.74 751.384,1594.32C741.313,1588.21 739.333,1586.61 739.07,1584.35C738.692,1581.1 752.559,1553.38 762.461,1537.59C785.362,1501.08 813.989,1471.33 848.062,1448.64C868.583,1434.98 886.778,1426.88 908.384,1421.77C918.352,1419.42 921.307,1419.17 939.884,1419.17C962.617,1419.17 973.215,1420.58 1000.23,1427.21C1021.57,1432.45 1031.73,1435.52 1075.88,1450.11C1150.58,1474.79 1184.41,1482.78 1230.54,1486.65C1249.22,1488.22 1301.65,1487.35 1319.88,1485.18C1362.55,1480.08 1408.03,1470.19 1470.23,1452.48C1485.58,1448.11 1498.97,1444.8 1500,1445.13C1501.15,1445.49 1501.88,1446.65 1501.88,1448.09C1501.88,1450.79 1483.98,1465.48 1434.88,1503.06C1419.21,1515.06 1405.03,1525.94 1403.38,1527.25C1401.73,1528.55 1397.68,1531.49 1394.38,1533.79C1391.08,1536.09 1385.23,1540.67 1381.38,1543.98C1316.65,1599.5 1203.37,1651.64 1115.04,1666.58C1086.58,1671.4 1047.03,1673.42 1017.38,1671.58Z" style="fill:rgb(56,95,145);fill-rule:nonzero;"/>
        </g>
        <g id="path2" transform="matrix(0.0411986,0,0,0.0411986,-11.0258,-8.72585)">
            <path d="M726.384,1578.37C697.154,1557.33 677.588,1541.47 655.954,1521.27C632.608,1499.47 604.884,1468.47 604.884,1464.16C604.884,1461.7 619.275,1448.01 644.969,1426.01C704.376,1375.15 750.037,1353.48 813.384,1346.09C829.922,1344.16 864.875,1343.89 881.884,1345.56C931.872,1350.47 980.385,1366.26 1044.97,1398.64C1051.7,1402.01 1058.83,1405.8 1060.83,1407.06C1062.83,1408.32 1074.57,1413.73 1086.92,1419.08C1174.18,1456.87 1216.32,1466.88 1281.38,1465.29C1338.76,1463.88 1406.81,1451.12 1503.77,1423.6C1519.38,1419.17 1532.99,1415.81 1534.02,1416.13C1537.71,1417.31 1536.16,1420.99 1529.53,1426.85C1522.34,1433.2 1524.12,1432.58 1467.88,1448.58C1404.38,1466.66 1361.26,1476.02 1317.23,1481.27C1305.6,1482.66 1294.58,1483.04 1266.38,1483.04C1234.42,1483.04 1228.48,1482.79 1213.38,1480.75C1172.18,1475.18 1139.96,1466.94 1077.88,1446.09C1029.38,1429.8 1002.69,1422.35 975.225,1417.43C964.368,1415.49 958.984,1415.14 940.384,1415.15C921.373,1415.16 916.991,1415.47 908.134,1417.4C860.957,1427.68 807.036,1467.04 770.881,1517.59C761.323,1530.96 753.91,1543.4 743.625,1563.34C735.444,1579.2 734.513,1580.59 732.056,1580.56C730.586,1580.54 728.034,1579.56 726.384,1578.37Z" style="fill:url(#_Linear1);fill-rule:nonzero;"/>
        </g>
        <g id="path7" transform="matrix(0.0411986,0,0,0.0411986,-11.0258,-8.72585)">
            <path d="M1241.38,1460.48C1188.88,1456.05 1124.8,1434.57 1044.95,1394.63C1029.41,1386.85 1012.12,1378.45 1006.53,1375.96C949.268,1350.42 904.381,1340.23 849.384,1340.28C789.013,1340.35 743.394,1352.92 696.167,1382.5C673.937,1396.43 649.829,1415.35 619.072,1443.02C609.55,1451.59 601.293,1458.59 600.723,1458.59C596.779,1458.59 574.971,1425.7 562.755,1401.34C552.567,1381.01 537.884,1342.25 537.884,1335.68C537.884,1333.79 541.678,1329.44 553.634,1317.64C594.656,1277.15 627.28,1257.76 679.674,1242.72C717.532,1231.86 750.337,1228.33 814.884,1228.19L856.384,1228.09L879.884,1239C908.059,1252.07 908.316,1252.19 990.384,1288.82C1058.14,1319.06 1068.29,1323.24 1101.5,1334.56C1145.12,1349.43 1179.47,1357.24 1221.38,1361.79C1240.58,1363.87 1301.83,1363.54 1319.38,1361.25C1368.67,1354.83 1399,1345.24 1460.57,1316.6C1481.19,1307.01 1484.02,1305.36 1500.57,1293.29C1557.19,1251.99 1586.41,1221.41 1615.38,1173.18C1638.91,1133.99 1653.59,1094.47 1659.05,1055.59C1660.81,1043.04 1660.82,996.067 1659.06,980.093C1654.27,936.503 1649.5,912.48 1641.58,891.957C1626.81,853.725 1590.34,800.888 1550.19,759.563C1531.21,740.026 1531.06,736.744 1549.43,742.951C1592.76,757.594 1622.1,775.845 1654.94,808.58C1690.19,843.728 1712.81,878.037 1733.78,928.181C1746.34,958.201 1751.69,992.664 1750.56,1036.09C1748.78,1103.93 1736.44,1154.52 1709.58,1204.09C1700.7,1220.48 1676.56,1260.75 1669.12,1271.59C1656.33,1290.22 1628.29,1324.44 1598.4,1357.89C1581.51,1376.8 1557.51,1401.51 1553.62,1403.99C1551.08,1405.62 1492.19,1422.62 1459.88,1431.06C1365.52,1455.7 1295.94,1465.07 1241.38,1460.48L1241.38,1460.48Z" style="fill:url(#_Linear2);fill-rule:nonzero;"/>
        </g>
        <g id="path6" transform="matrix(0.0411986,0,0,0.0411986,-11.0258,-8.72585)">
            <path d="M533.755,1322.84C531.658,1317.5 524.072,1281.77 520.532,1260.57C515.84,1232.47 510.766,1194.06 511.494,1192.17C512.189,1190.35 510.235,1190.96 538.884,1183.69C592.214,1170.16 621.48,1165.6 654.91,1165.59C688.204,1165.59 712.949,1170.1 750.384,1182.98C780.44,1193.32 832.427,1215.79 833.453,1218.89C834.825,1223.03 833.371,1223.25 799.144,1223.91C732.037,1225.21 691.67,1231.72 650.384,1247.9C613.344,1262.4 585.122,1280.99 553.405,1311.74C538.241,1326.45 535.727,1327.87 533.755,1322.84Z" style="fill:rgb(103,208,255);fill-rule:nonzero;"/>
        </g>
        <g id="path5" transform="matrix(0.0411986,0,0,0.0411986,-11.0258,-8.72585)">
            <path d="M354.923,1259.14C353.973,1258 354.167,1255.29 355.841,1246.39C363.337,1206.51 377.699,1176.06 405.5,1141.09C418.098,1125.25 446.984,1096.73 461.049,1086.25C483.868,1069.25 511.92,1053.82 544.884,1040.13C605.317,1015.03 648.031,1002.94 691.307,998.67C706.824,997.139 742.939,997.354 759.144,999.074C814.564,1004.96 862.817,1020.25 986.384,1071.08C1047.62,1096.28 1086.03,1111 1116.47,1120.96C1176.55,1140.61 1223.54,1148.38 1265.38,1145.6C1298.15,1143.42 1325.08,1137.46 1354.25,1125.93C1395.07,1109.8 1430.75,1088.66 1487.56,1046.94C1497.55,1039.6 1506.65,1033.59 1507.79,1033.59C1509.17,1033.59 1510.06,1034.45 1510.5,1036.2C1511.77,1041.28 1510.08,1070.73 1507.94,1080.75C1497.66,1128.91 1464.41,1173.67 1418.72,1200.88C1403.02,1210.23 1377.36,1222.17 1365.88,1225.47C1308.63,1241.93 1273.07,1247.35 1229.38,1246.25C1196.59,1245.42 1173.1,1241.94 1134.61,1232.21C1082.81,1219.1 1032.65,1201.74 923.471,1159.12C878.177,1141.44 846.681,1130.07 823.801,1123.13C807.898,1118.31 802.039,1117.08 780.884,1114.12C732.041,1107.29 711.643,1105.59 678.399,1105.59C652.807,1105.59 631.403,1107.18 611.356,1110.58C543.388,1122.08 486.361,1147.12 435.384,1187.83C418.529,1201.29 404.131,1214.6 378.939,1239.99C367.694,1251.32 357.961,1260.59 357.311,1260.59C356.661,1260.59 355.586,1259.94 354.923,1259.14Z" style="fill:url(#_Radial3);fill-rule:nonzero;"/>
        </g>
        <g id="path4" transform="matrix(0.0411986,0,0,0.0411986,-11.0258,-8.72585)">
            <path d="M1214.38,1140.01C1145,1128.17 1108.53,1116.16 1012.38,1077.09C901.915,1032.2 891.01,1027.98 856.884,1016.83C799.589,998.104 751.801,990.771 705.189,993.548C655.385,996.515 615.496,1006.72 552.205,1032.67C538.906,1038.12 527.336,1042.32 526.493,1042C525.65,1041.67 524.717,1040.64 524.42,1039.71C524.123,1038.77 527.222,1027.22 531.308,1014.05C539.947,986.184 540.241,985.359 542.03,983.922C542.774,983.324 551.484,979.228 561.384,974.82C638.267,940.589 683.196,926.62 737.884,919.947C757.822,917.513 801.475,917.502 822.083,919.925C870.261,925.589 910.488,935.54 1016.88,968.112C1127.3,1001.92 1171.54,1012.5 1219.88,1016.69C1238.6,1018.31 1276.39,1017.3 1293.88,1014.72C1347.91,1006.72 1390.26,990.291 1464.11,948.686C1478,940.858 1486.64,936.563 1488.08,936.769C1489.98,937.042 1490.92,938.867 1494.21,948.592C1503.52,976.091 1512.58,1019.48 1510.02,1024.27C1508.74,1026.66 1464.03,1059.46 1441.88,1074.26C1388.07,1110.23 1343.46,1129.6 1294.72,1138.16C1281.17,1140.54 1276.3,1140.89 1252.88,1141.17C1233.85,1141.4 1222.94,1141.47 1214.38,1140.01Z" style="fill:url(#_Linear4);fill-rule:nonzero;"/>
        </g>
        <g id="path3" transform="matrix(0.0411986,0,0,0.0411986,-11.0258,-8.72585)">
            <path d="M1223.88,1012.97C1223.88,1013.46 1134.91,999.181 1058.38,976.053C1041.33,970.901 1010.96,961.689 990.884,955.583C912.549,931.757 868.698,921.338 823.884,915.905C803.266,913.405 754.959,913.424 735.384,915.94C682.744,922.705 641.446,935.213 573.691,964.912C548.272,976.054 549.264,975.675 547.384,974.954C544.94,974.016 545.612,970.321 550.765,956.337C584.023,866.092 627.27,803.726 736.77,688.101C769.808,653.216 857.559,563.916 872.862,549.607C895.22,528.702 948.799,464.662 973.689,429.092C996.47,396.537 1016.46,357.821 1030.34,319.37C1033.23,311.377 1035.78,308.946 1038.35,311.739C1039.04,312.484 1041.3,317.817 1043.38,323.592C1048.43,337.656 1057.67,359.212 1064.36,372.534C1086.77,417.219 1128.18,476.27 1175.91,531.592C1197.24,556.301 1202.25,561.754 1278.79,643.505C1355.76,725.717 1418.48,805.387 1458.2,871.411C1472.71,895.525 1487.6,926.566 1486.29,929.98C1484.71,934.091 1419.83,969.319 1389.74,982.402C1357.17,996.564 1322.22,1006.6 1289.82,1011.11C1278.83,1012.63 1226.42,1013.01 1226.42,1013.01L1223.88,1012.97Z" style="fill:url(#_Linear5);fill-rule:nonzero;"/>
        </g>
    </g>
    <defs>
        <linearGradient id="_Linear1" x1="0" y1="0" x2="1" y2="0" gradientUnits="userSpaceOnUse" gradientTransform="matrix(931.09,0,0,931.09,604.884,1462.51)"><stop offset="0" style="stop-color:rgb(29,124,165);stop-opacity:1"/><stop offset="1" style="stop-color:rgb(229,248,255);stop-opacity:0.26"/></linearGradient>
        <linearGradient id="_Linear2" x1="0" y1="0" x2="1" y2="0" gradientUnits="userSpaceOnUse" gradientTransform="matrix(1212.82,0,0,1212.82,537.884,1100.86)"><stop offset="0" style="stop-color:rgb(67,112,151);stop-opacity:1"/><stop offset="1" style="stop-color:rgb(49,87,117);stop-opacity:1"/></linearGradient>
        <radialGradient id="_Radial3" cx="0" cy="0" r="1" gradientUnits="userSpaceOnUse" gradientTransform="matrix(-357.042,175,-54.7393,-111.681,1413.51,1120.36)"><stop offset="0" style="stop-color:rgb(1,240,222);stop-opacity:1"/><stop offset="1" style="stop-color:rgb(1,148,190);stop-opacity:1"/></radialGradient>
        <linearGradient id="_Linear4" x1="0" y1="0" x2="1" y2="0" gradientUnits="userSpaceOnUse" gradientTransform="matrix(986.056,0,0,986.056,524.4,1029.71)"><stop offset="0" style="stop-color:rgb(131,204,255);stop-opacity:1"/><stop offset="1" style="stop-color:rgb(32,171,138);stop-opacity:1"/></linearGradient>
        <linearGradient id="_Linear5" x1="0" y1="0" x2="1" y2="0" gradientUnits="userSpaceOnUse" gradientTransform="matrix(-684.545,-774.631,774.631,-684.545,1161.43,986.637)"><stop offset="0" style="stop-color:rgb(0,202,184);stop-opacity:0.87"/><stop offset="0.59" style="stop-color:rgb(86,179,255);stop-opacity:0.93"/><stop offset="1" style="stop-color:rgb(86,179,255);stop-opacity:0.93"/></linearGradient>
    </defs>
</svg>
