<?xml version="1.0" encoding="UTF-8" standalone="no"?>
<!DOCTYPE svg PUBLIC "-//W3C//DTD SVG 1.1//EN" "http://www.w3.org/Graphics/SVG/1.1/DTD/svg11.dtd">
<svg width="100%" height="100%" viewBox="0 0 64 64" version="1.1" xmlns="http://www.w3.org/2000/svg" xmlns:xlink="http://www.w3.org/1999/xlink" xml:space="preserve" xmlns:serif="http://www.serif.com/" style="fill-rule:evenodd;clip-rule:evenodd;stroke-linecap:round;stroke-linejoin:round;stroke-miterlimit:1.5;">
    <g id="b">
        <path d="M30.567,14.968C46.868,13.895 60.723,21.603 61.515,32.193C62.308,42.783 49.731,52.229 33.432,53.301C17.132,54.372 3.276,46.663 2.485,36.077C1.694,25.491 14.266,16.043 30.567,14.968Z" style="fill:rgb(79,129,152);fill-rule:nonzero;"/>
        <path d="M30.567,10.699C46.868,9.626 60.723,17.334 61.515,27.924C62.308,38.515 49.731,47.96 33.432,49.032C17.132,50.104 3.276,42.394 2.485,31.808C1.694,21.223 14.266,11.774 30.567,10.699Z" style="fill:rgb(115,167,199);"/>
        <path d="M30.811,14.848C44.611,13.939 56.284,19.876 56.9,28.112C57.516,36.348 46.833,43.755 33.04,44.663C19.248,45.572 7.567,39.632 6.951,31.399C6.336,23.166 17.018,15.756 30.811,14.848Z" style="fill:rgb(39,65,0);fill-rule:nonzero;"/>
        <path d="M30.706,12.624C45.679,11.594 58.344,18.321 59.012,27.655C59.681,36.988 48.09,45.382 33.124,46.411C18.16,47.441 5.487,40.709 4.818,31.38C4.151,22.05 15.741,13.653 30.706,12.624Z" style="fill:rgb(39,65,0);fill-rule:nonzero;"/>
        <path d="M30.567,10.699C46.868,9.626 60.723,17.334 61.515,27.924C62.308,38.515 49.731,47.96 33.432,49.032C17.132,50.104 3.276,42.394 2.485,31.808C1.694,21.223 14.266,11.774 30.567,10.699ZM30.731,13.194C21.645,13.793 13.776,17.118 9.118,21.865C6.319,24.718 4.713,28.077 4.978,31.622C5.244,35.179 7.342,38.304 10.55,40.771C15.875,44.867 24.172,47.136 33.268,46.537C42.353,45.94 50.223,42.617 54.882,37.87C57.682,35.017 59.288,31.657 59.022,28.111C58.756,24.551 56.657,21.426 53.45,18.959C48.124,14.862 39.828,12.595 30.731,13.194Z" style="fill:rgb(115,167,199);"/>
    </g>
    <g id="Layer1">
        <path d="M26.32,16.435L48.444,19.057C58.668,25.985 52.904,34.358 34.448,43.88C25.766,44.588 18.016,42.504 11.043,38.087C6.596,27.814 11.24,20.453 26.32,16.435Z" style="fill:rgb(79,129,152);"/>
        <path d="M10.191,35.807C16.714,40.267 29.031,42.941 37.69,42.214L35.326,44.45C25.546,45.624 16.083,43.308 10.575,38.38L10.191,35.807Z" style="fill:rgb(146,144,144);stroke:rgb(146,144,144);stroke-width:1px;"/>
        <path d="M10.191,34.134C17.699,40.159 26.279,42.542 38.058,41" style="fill:none;stroke:rgb(87,87,87);stroke-width:2px;stroke-linecap:butt;"/>
        <path d="M42.707,39.223L39.571,41.456L38.058,41.941L37.456,40.005L42.707,39.223Z" style="fill:rgb(87,87,87);"/>
        <path d="M9.302,32.146L9.87,35.046L10.986,33.402L9.302,32.146Z" style="fill:rgb(87,87,87);"/>
        <path d="M26.32,16.435L48.444,19.057C58.953,26.524 52.619,34.887 34.448,43.88C25.698,44.855 17.962,42.725 11.043,38.087C6.605,27.943 11.384,20.629 26.32,16.435Z" style="fill:none;stroke:rgb(146,144,144);stroke-width:0.87px;"/>
        <g transform="matrix(0.916916,0,0,0.882335,3.03937,2.1768)">
            <path d="M43.262,13.643L39.39,18.5L36.582,18.185L40.593,12.978C41.605,12.909 42.538,13.232 43.262,13.643Z" style="fill:rgb(75,195,241);"/>
        </g>
        <g transform="matrix(0.900012,0,0,0.902311,3.65405,1.78457)">
            <path d="M40.939,13.09L37.115,18.268L36.545,18.204L40.467,13.021L40.939,13.09Z" style="fill:rgb(146,144,144);"/>
        </g>
        <g transform="matrix(0.903187,0,0,0.911334,3.77977,1.64352)">
            <path d="M43.262,13.643L39.611,18.536L39.042,18.473L42.84,13.553L43.262,13.643Z" style="fill:rgb(146,144,144);"/>
        </g>
        <path d="M21.039,42.543C21.955,42.753 22.547,43.583 22.361,44.396C22.175,45.208 21.28,45.697 20.364,45.488C19.449,45.278 18.857,44.448 19.043,43.635C19.229,42.823 20.124,42.334 21.039,42.543Z" style="fill:rgb(87,87,87);"/>
        <g>
            <g>
                <clipPath id="_clip1">
                    <path d="M21.039,42.543C21.955,42.753 22.547,43.583 22.361,44.396C22.175,45.208 21.28,45.697 20.364,45.488C19.449,45.278 18.857,44.448 19.043,43.635C19.229,42.823 20.124,42.334 21.039,42.543Z"/>
                </clipPath>
                <g clip-path="url(#_clip1)">
                    <path d="M15.973,42.495C18.987,43.662 22.039,44.861 26.013,44.656L25.055,46.92L16.029,45.625L15.973,42.495Z" style="fill:rgb(39,65,0);"/>
                </g>
            </g>
        </g>
        <path d="M21.434,44.297L19.728,47.796L19.156,47.827L21.003,44.277L21.434,44.297Z" style="fill:rgb(146,144,144);"/>
        <path d="M20,43.787L17.176,46.998L16.613,46.894L19.586,43.667L20,43.787Z" style="fill:rgb(146,144,144);"/>
        <path d="M20.702,42.495L16.896,46.92C17.566,47.778 18.229,48.198 19.388,47.958L21.965,43.064C21.729,42.736 21.338,42.523 20.702,42.495Z" style="fill:rgb(79,129,152);"/>
    </g>
</svg>
