<?xml version="1.0" encoding="UTF-8" standalone="no"?>
<!DOCTYPE svg PUBLIC "-//W3C//DTD SVG 1.1//EN" "http://www.w3.org/Graphics/SVG/1.1/DTD/svg11.dtd">
<svg width="100%" height="100%" viewBox="0 0 64 64" version="1.1" xmlns="http://www.w3.org/2000/svg" xmlns:xlink="http://www.w3.org/1999/xlink" xml:space="preserve" xmlns:serif="http://www.serif.com/" style="fill-rule:evenodd;clip-rule:evenodd;stroke-linejoin:round;stroke-miterlimit:1;">
    <g id="b">
        <path d="M30.567,14.968C46.868,13.895 60.723,21.603 61.515,32.193C62.308,42.783 49.731,52.229 33.432,53.301C17.132,54.372 3.276,46.663 2.485,36.077C1.694,25.491 14.266,16.043 30.567,14.968Z" style="fill:rgb(79,129,152);fill-rule:nonzero;"/>
        <path d="M30.567,10.699C46.868,9.626 60.723,17.334 61.515,27.924C62.308,38.515 49.731,47.96 33.432,49.032C17.132,50.104 3.276,42.394 2.485,31.808C1.694,21.223 14.266,11.774 30.567,10.699Z" style="fill:rgb(115,167,199);fill-rule:nonzero;"/>
        <path d="M30.811,14.848C44.611,13.939 56.284,19.876 56.9,28.112C57.516,36.348 46.833,43.755 33.04,44.663C19.248,45.572 7.567,39.632 6.951,31.399C6.336,23.166 17.018,15.756 30.811,14.848Z" style="fill:rgb(39,65,0);fill-rule:nonzero;"/>
        <path d="M30.706,12.624C45.679,11.594 58.344,18.321 59.012,27.655C59.681,36.988 48.09,45.382 33.124,46.411C18.16,47.441 5.487,40.709 4.818,31.38C4.151,22.05 15.741,13.653 30.706,12.624Z" style="fill:rgb(39,65,0);fill-rule:nonzero;"/>
        <path d="M30.567,10.699C46.868,9.626 60.723,17.334 61.515,27.924C62.308,38.515 49.731,47.96 33.432,49.032C17.132,50.104 3.276,42.394 2.485,31.808C1.694,21.223 14.266,11.774 30.567,10.699ZM30.731,13.194C21.645,13.793 13.776,17.118 9.118,21.865C6.319,24.718 4.713,28.077 4.978,31.622C5.244,35.179 7.342,38.304 10.55,40.771C15.875,44.867 24.172,47.136 33.268,46.537C42.353,45.94 50.223,42.617 54.882,37.87C57.682,35.017 59.288,31.657 59.022,28.111C58.756,24.551 56.657,21.426 53.45,18.959C48.124,14.862 39.828,12.595 30.731,13.194Z" style="fill:rgb(115,167,199);"/>
    </g>
    <g id="a">
        <g>
            <rect x="48.298" y="12.261" width="2.305" height="10.739" style="fill:rgb(117,70,0);"/>
            <path d="M49.449,1.016L53.93,13.309L44.971,13.309L49.449,1.016Z" style="fill:rgb(39,65,0);stroke:rgb(39,65,0);stroke-width:0.8px;"/>
        </g>
        <path d="M34.987,33.734C34.637,36 28.55,37.836 21.383,37.836C14.205,37.836 9.61,35.922 9.938,33.652C10.159,32.117 12.059,30.848 16.116,30.141C14.993,29.231 14.438,28.199 14.594,27.109C15.131,23.398 23.75,20.387 33.829,20.387C39.677,20.387 44.741,21.402 47.853,22.977C52.148,23.125 54.121,24.199 53.915,25.641C53.771,26.633 53.259,27.617 50.769,28.113C49.188,30.977 42.783,33.25 34.987,33.734Z" style="fill:rgb(115,167,199);stroke:rgb(85,142,47);stroke-width:1.64px;stroke-linecap:round;stroke-miterlimit:1.5;"/>
    </g>
</svg>
