<?xml version="1.0" encoding="UTF-8" standalone="no"?>
<!DOCTYPE svg PUBLIC "-//W3C//DTD SVG 1.1//EN" "http://www.w3.org/Graphics/SVG/1.1/DTD/svg11.dtd">
<svg width="100%" height="100%" viewBox="0 0 64 64" version="1.1" xmlns="http://www.w3.org/2000/svg" xmlns:xlink="http://www.w3.org/1999/xlink" xml:space="preserve" xmlns:serif="http://www.serif.com/" style="fill-rule:evenodd;clip-rule:evenodd;stroke-linejoin:round;stroke-miterlimit:2;">
    <g>
        <g>
            <path d="M30.622,59.972C29.047,59.872 27.107,59.591 26.106,59.317C23.486,58.601 21.627,57.84 19.942,56.795C19.538,56.544 19.458,56.478 19.448,56.385C19.433,56.251 19.989,55.111 20.387,54.462C21.307,52.96 22.456,51.737 23.824,50.803C24.648,50.242 25.378,49.908 26.246,49.698C26.646,49.602 26.765,49.591 27.511,49.591C28.423,49.591 28.849,49.649 29.934,49.922C30.79,50.138 31.198,50.264 32.971,50.864C35.97,51.879 37.329,52.207 39.181,52.367C39.931,52.431 42.036,52.395 42.768,52.306C44.481,52.096 46.307,51.69 48.805,50.961C49.421,50.782 49.958,50.645 50,50.659C50.046,50.674 50.075,50.722 50.075,50.781C50.075,50.892 49.357,51.496 47.385,53.042C46.756,53.535 46.187,53.983 46.12,54.036C46.054,54.09 45.892,54.211 45.759,54.305C45.627,54.4 45.392,54.588 45.237,54.724C42.638,57.008 38.09,59.152 34.543,59.767C33.401,59.965 31.813,60.048 30.622,59.972L30.622,59.972Z" style="fill:#3bb1ce;fill-rule:nonzero;"/>
            <path d="M18.937,56.139C17.764,55.274 16.978,54.622 16.109,53.791C15.172,52.894 14.059,51.619 14.059,51.442C14.059,51.341 14.637,50.778 15.668,49.873C18.054,47.781 19.887,46.89 22.431,46.586C23.095,46.507 24.498,46.496 25.181,46.564C27.188,46.766 29.136,47.416 31.729,48.747C31.999,48.886 32.286,49.042 32.366,49.094C32.446,49.146 32.918,49.368 33.413,49.588C36.917,51.142 38.609,51.554 41.221,51.489C43.525,51.431 46.257,50.906 50.15,49.774C50.777,49.592 51.324,49.454 51.365,49.467C51.513,49.515 51.451,49.667 51.185,49.908C50.896,50.169 50.967,50.143 48.709,50.801C46.16,51.545 44.428,51.93 42.661,52.146C42.194,52.203 41.751,52.219 40.619,52.219C39.336,52.219 39.097,52.208 38.491,52.124C36.837,51.895 35.543,51.556 33.051,50.699C31.103,50.029 30.032,49.723 28.929,49.52C28.493,49.44 28.277,49.426 27.53,49.426C26.766,49.427 26.59,49.44 26.235,49.519C24.341,49.942 22.176,51.561 20.724,53.64C20.34,54.189 20.043,54.701 19.63,55.521C19.301,56.173 19.264,56.231 19.165,56.229C19.106,56.228 19.004,56.188 18.938,56.139L18.937,56.139Z" style="fill:#60a2d3;fill-rule:nonzero;"/>
            <path d="M39.616,51.29C37.508,51.108 34.935,50.225 31.729,48.582C31.105,48.262 30.411,47.917 30.186,47.814C27.887,46.764 26.085,46.345 23.877,46.347C21.453,46.35 19.621,46.867 17.725,48.083C16.832,48.656 15.864,49.434 14.629,50.572C14.247,50.925 13.915,51.213 13.893,51.213C13.734,51.213 12.859,49.86 12.368,48.858C11.959,48.022 11.37,46.428 11.37,46.158C11.37,46.08 11.522,45.901 12.002,45.416C13.649,43.75 14.959,42.953 17.063,42.334C18.583,41.888 19.9,41.743 22.491,41.737L24.158,41.733L25.101,42.181C26.232,42.719 26.243,42.724 29.538,44.23C32.258,45.474 32.666,45.646 33.999,46.112C35.751,46.723 37.13,47.044 38.813,47.231C39.584,47.317 42.043,47.303 42.747,47.209C44.726,46.945 45.944,46.551 48.416,45.373C49.244,44.978 49.358,44.911 50.022,44.414C52.296,42.716 53.469,41.458 54.632,39.474C55.577,37.863 56.166,36.237 56.385,34.638C56.456,34.122 56.457,32.19 56.386,31.533C56.194,29.74 56.002,28.752 55.684,27.908C55.091,26.336 53.627,24.163 52.015,22.464C51.253,21.66 51.247,21.525 51.984,21.78C53.724,22.383 54.902,23.133 56.22,24.479C57.636,25.925 58.544,27.336 59.386,29.398C59.89,30.633 60.105,32.05 60.06,33.836C59.988,36.626 59.493,38.707 58.414,40.746C58.058,41.42 57.088,43.076 56.79,43.522C56.276,44.288 55.15,45.696 53.95,47.071C53.272,47.849 52.309,48.865 52.152,48.967C52.05,49.034 49.686,49.733 48.389,50.081C44.6,51.094 41.806,51.479 39.616,51.29L39.616,51.29Z" style="fill:#4d8198;fill-rule:nonzero;"/>
            <path d="M11.203,45.627C11.119,45.407 10.815,43.938 10.673,43.066C10.484,41.91 10.28,40.331 10.31,40.253C10.338,40.178 10.259,40.203 11.409,39.904C13.551,39.348 14.726,39.16 16.068,39.16C17.405,39.16 18.398,39.345 19.901,39.875C21.108,40.3 23.196,41.224 23.237,41.352C23.292,41.522 23.233,41.531 21.859,41.558C19.165,41.612 17.544,41.88 15.886,42.545C14.399,43.141 13.266,43.906 11.993,45.171C11.384,45.776 11.283,45.834 11.204,45.627L11.203,45.627Z" style="fill:#17a;fill-rule:nonzero;"/>
            <path d="M4.023,42.391C3.985,42.347 3.993,42.242 4.06,41.897C4.361,40.351 4.939,39.17 6.056,37.814C6.563,37.2 7.724,36.094 8.29,35.688C9.207,35.029 10.335,34.431 11.66,33.9C14.09,32.927 15.807,32.458 17.547,32.292C18.171,32.233 19.623,32.241 20.274,32.308C22.502,32.536 24.442,33.129 29.41,35.1C31.872,36.077 33.417,36.648 34.641,37.034C37.056,37.796 38.945,38.097 40.627,37.989C41.945,37.905 43.028,37.673 44.2,37.226C45.842,36.601 47.276,35.781 49.56,34.164C49.962,33.879 50.328,33.646 50.373,33.646C50.429,33.646 50.465,33.68 50.482,33.747C50.533,33.944 50.466,35.086 50.379,35.475C49.966,37.342 48.629,39.077 46.792,40.132C46.161,40.495 45.13,40.958 44.668,41.086C42.366,41.724 40.937,41.934 39.18,41.891C37.862,41.859 36.917,41.724 35.37,41.347C33.287,40.839 31.271,40.166 26.881,38.513C25.06,37.828 23.794,37.387 22.874,37.118C22.235,36.931 21.999,36.883 21.148,36.769C19.185,36.504 18.365,36.438 17.028,36.438C15.999,36.438 15.139,36.499 14.333,36.631C11.6,37.077 9.307,38.048 7.258,39.626C6.58,40.148 6.002,40.664 4.989,41.649C4.537,42.088 4.145,42.447 4.119,42.447C4.093,42.447 4.05,42.422 4.023,42.391L4.023,42.391Z" style="fill:#17a;fill-rule:nonzero;"/>
            <path d="M38.545,36.954C35.758,36.528 34.293,36.097 30.43,34.694C25.993,33.081 25.555,32.929 24.184,32.529C21.882,31.856 19.963,31.593 18.09,31.693C16.09,31.799 14.487,32.166 11.945,33.098C11.411,33.294 10.946,33.445 10.912,33.433C10.878,33.421 10.841,33.384 10.829,33.351C10.817,33.317 10.942,32.902 11.106,32.429C11.453,31.428 11.465,31.398 11.536,31.347C11.566,31.325 11.916,31.178 12.314,31.02C15.402,29.79 17.207,29.288 19.404,29.049C20.205,28.961 21.958,28.961 22.786,29.048C24.721,29.251 26.337,29.609 30.611,30.779C35.047,31.993 36.824,32.373 38.765,32.524C39.517,32.582 41.035,32.546 41.738,32.453C43.908,32.166 45.609,31.576 48.576,30.081C49.134,29.8 49.481,29.646 49.539,29.653C49.615,29.663 49.653,29.728 49.785,30.078C50.159,31.066 50.523,32.624 50.42,32.796C50.369,32.882 48.573,34.06 47.683,34.592C45.522,35.884 43.73,36.58 41.772,36.887C41.227,36.973 41.032,36.985 40.091,36.995C39.327,37.004 38.888,37.006 38.544,36.954L38.545,36.954Z" style="fill:#60a2d3;fill-rule:nonzero;"/>
            <path d="M38.913,31.998C38.913,32.018 35.341,31.449 32.268,30.527C31.584,30.321 30.364,29.954 29.558,29.711C26.413,28.761 24.652,28.346 22.853,28.129C22.025,28.029 20.086,28.03 19.3,28.13C17.186,28.4 15.528,28.899 12.808,30.083C11.787,30.527 11.827,30.512 11.751,30.483C11.653,30.446 11.68,30.298 11.887,29.741C13.222,26.143 14.959,23.657 19.355,19.048C20.682,17.657 24.205,14.097 24.819,13.527C25.717,12.694 27.868,10.141 28.868,8.722C29.782,7.425 30.585,5.881 31.142,4.349C31.258,4.03 31.361,3.933 31.464,4.044C31.492,4.074 31.582,4.287 31.666,4.517C31.869,5.078 32.24,5.937 32.508,6.468C33.408,8.249 35.071,10.603 36.987,12.809C37.843,13.794 38.045,14.011 41.118,17.27C44.208,20.547 46.726,23.723 48.321,26.355C48.904,27.317 49.502,28.554 49.449,28.69C49.386,28.854 46.781,30.258 45.572,30.78C44.265,31.344 42.862,31.744 41.561,31.924C41.119,31.985 39.015,32 39.015,32L38.913,31.998L38.913,31.998Z" style="fill:#3bb1ce;fill-rule:nonzero;"/>
        </g>
    </g>
</svg>
